# xmcd
#
# Track frame offsets:
#	150
#	13166
#	26386
#	39485
#	55526
#	70057
#	83926
#	97430
#	110868
#	125526
#	136814
#	150404
#	167074
#	181652
#	194494
#	207945
#	222899
#	237314
#	253518
#	268435
#	284092
#	297246
#
# Disc length: 4155 seconds
#
# Revision: 1
# Processed by: cddbd v1.5.2PL0 Copyright (c) Steve Scherf et al.
# Submitted via: audiograbber 1.83.01
#
DISCID=4e103916
DTITLE=Ne-Yo - LadiesMan
DYEAR=1900
DGENRE=R&B
TTITLE0=Ghetto love story
TTITLE1=Miss your company
TTITLE2=I love you
TTITLE3=A little space
TTITLE4=Think about it
TTITLE5=This can´t be good
TTITLE6=Do you? (remix)
TTITLE7=Stand accused
TTITLE8=Comfortable
TTITLE9=Sexy in here
TTITLE10=How i do feat. Fabolous
TTITLE11=In the way
TTITLE12=You don´t love me
TTITLE13=Sexy
TTITLE14=Let´s just be
TTITLE15=Set it off
TTITLE16=Together
TTITLE17=Mad
TTITLE18=More 2 me
TTITLE19=The Gift feat. Fabolous
TTITLE20=Back like that feat. Ghostface Killah
TTITLE21=Feels so good feat. Remy Ma
EXTD=
EXTT0=
EXTT1=
EXTT2=
EXTT3=
EXTT4=
EXTT5=
EXTT6=
EXTT7=
EXTT8=
EXTT9=
EXTT10=
EXTT11=
EXTT12=
EXTT13=
EXTT14=
EXTT15=
EXTT16=
EXTT17=
EXTT18=
EXTT19=
EXTT20=
EXTT21=
PLAYORDER=
